<svg width="128" height="128" xmlns="http://www.w3.org/2000/svg"><rect x="4" y="4" width="120" height="120" rx="24" fill="#2C3E50"/><rect x="48" y="16" width="10" height="96" rx="3" fill="#617474"/><rect x="16" y="20" width="33" height="88" rx="6" fill="#FDFDFB" opacity=".12"/><rect x="58" y="16" width="54" height="96" rx="6" fill="#FDFDFB"/><circle cx="76" cy="42" r="10" fill="#2C3E50"/><circle cx="76" cy="42" r="6" fill="#EAEEF1"/><circle cx="78" cy="40" r="3" fill="#2C3E50"/><circle cx="79.5" cy="38.5" r="1.2" fill="#FDFDFB"/><circle cx="100" cy="42" r="10" fill="#2C3E50"/><circle cx="100" cy="42" r="6" fill="#EAEEF1"/><circle cx="102" cy="40" r="3" fill="#2C3E50"/><circle cx="103.5" cy="38.5" r="1.2" fill="#FDFDFB"/><path d="M72 62q16 16 34 0" fill="none" stroke="#617474" stroke-width="3.5" stroke-linecap="round"/><path stroke="#D8E3E7" stroke-width="2" stroke-linecap="round" d="M66 88h38"/><path stroke="#D8E3E7" stroke-width="1.5" stroke-linecap="round" d="M66 96h32"/><path stroke="#FDFDFB" stroke-width="1.5" stroke-linecap="round" opacity=".2" d="M28 32v64"/><path stroke="#FDFDFB" stroke-linecap="round" opacity=".12" d="M36 32v64"/></svg>